<svg width="64" height="72" viewBox="0 0 64 72" xmlns="http://www.w3.org/2000/svg">
  <defs>
    <radialGradient id="shieldGlow" cx="50%" cy="35%" r="60%">
      <stop offset="0%" stop-color="#ff2a2a" stop-opacity="0.35" />
      <stop offset="70%" stop-color="#ff2a2a" stop-opacity="0.12" />
      <stop offset="100%" stop-color="#ff2a2a" stop-opacity="0" />
    </radialGradient>
  </defs>
  
  <!-- Background glow -->
  <circle cx="32" cy="28" r="26" fill="url(#shieldGlow)" />
  
  <!-- Shield body -->
  <path
    d="M32 4 L54 12 V31 c0 15 -9.5 28 -22 34 C19.5 59 10 46 10 31 V12 L32 4 Z"
    fill="#0f0f10"
  />
  
  <!-- Shield outline -->
  <path
    d="M32 4 L54 12 V31 c0 15 -9.5 28 -22 34 C19.5 59 10 46 10 31 V12 L32 4 Z"
    fill="none"
    stroke="#ff4444"
    stroke-width="4.5"
    stroke-linejoin="round"
  />
  
  <!-- Lightning bolt -->
  <g transform="translate(32,32) scale(1.3) translate(-12,-12)">
    <path
      d="M13 3l0 7l6 0l-8 11l0 -7l-6 0l8 -11"
      fill="none"
      stroke="#ffffff"
      stroke-width="2.2"
      stroke-linecap="round"
      stroke-linejoin="round"
    />
  </g>
</svg>

